<svg xmlns="http://www.w3.org/2000/svg" viewBox="0 0 360 262.95"><defs><style>.cls-1{fill:#fac9a9;}.cls-2{fill:#ffd8c2;}.cls-2,.cls-3{opacity:0.5;}.cls-3{fill:#ffb199;}</style></defs><title>lawyers-banner</title><g id="Layer_2" data-name="Layer 2"><g id="Layer_1-2" data-name="Layer 1"><path class="cls-1" d="M360,0V212.95a50,50,0,0,1-50,50H50a50,50,0,0,1-50-50V0Z"/><path class="cls-2" d="M360,0V81.95c-4.67-5.6-9.21-18.33-13.26-27.61C330.35,16.76,304.2,20.76,283.25,52c-19.64,29.26-36.83,35.81-54.31,28.76C180,61,211.18,0,211.18,0H360Z"/><path class="cls-3" d="M94.08,51.08C53.25,59,16.54,74,57,167.29c16,36.85,15,71,.64,95.66H50a50,50,0,0,1-50-50V0H153.09C170.76,33.18,135.68,43,94.08,51.08Z"/></g></g></svg>