<svg xmlns="http://www.w3.org/2000/svg" width="61.72" height="41" viewBox="0 0 61.72 41"><defs><style>.cls-1{fill:#1dd8cf;}.cls-2{fill:#fff;}.cls-2,.cls-3{stroke:#212121;stroke-linecap:round;stroke-linejoin:round;}.cls-3{fill:none;}</style></defs><title>Asset 2</title><g id="Layer_2" data-name="Layer 2"><g id="Layer_1-2" data-name="Layer 1"><path class="cls-1" d="M24.62,15.42a1.82,1.82,0,0,1-.8-.16,10.94,10.94,0,0,1-1.94-2.08,8.29,8.29,0,0,1-7.56-1.58A3.76,3.76,0,0,1,10.85,15a.61.61,0,0,1-.61-.54,7.26,7.26,0,0,1,4-7.61A13.72,13.72,0,0,1,17.44,6h.44C26.4,6.19,24.62,15.42,24.62,15.42Z"/><path class="cls-1" d="M9.58,27.52,9,27.75A3.72,3.72,0,0,0,6.8,31.36l.17,4a1.9,1.9,0,0,0,1.88,1.81H27.43a1.9,1.9,0,0,0,1.88-1.81l.17-4a3.72,3.72,0,0,0-2.23-3.61l-.81-.34Z"/><path class="cls-1" d="M55.35,10.32a1.9,1.9,0,0,1,1.94,1.86v9.76a1.9,1.9,0,0,1-1.94,1.86H36.79a1.9,1.9,0,0,1-1.94-1.86V12.18a1.9,1.9,0,0,1,1.94-1.86Z"/><path class="cls-2" d="M20.52,23.92,16.28,27.6l1.89,1.85a1,1,0,0,0,1.5-.14l2.7-3.87L21.22,24A.48.48,0,0,0,20.52,23.92Z"/><path class="cls-2" d="M12,23.92l4.24,3.68-1.89,1.85a1,1,0,0,1-1.5-.14l-2.7-3.87L11.34,24A.48.48,0,0,1,12,23.92Z"/><path class="cls-3" d="M24.19,35.9h1.63a1.93,1.93,0,0,0,1.93-1.81l.18-4a3.73,3.73,0,0,0-2.3-3.61l-.83-.34"/><path class="cls-3" d="M7.5,26.28l-.57.24a3.73,3.73,0,0,0-2.3,3.61l.18,4A1.93,1.93,0,0,0,6.74,35.9H21.18"/><path class="cls-3" d="M22.15,14.5c.61-.77,2.3-.41,2,1.48s-1.82,1.46-1.82,1.46c-1.24,5.27-4.55,5.47-6,5.47-1.69,0-5.1-.37-6.18-5.5a1.58,1.58,0,0,1-1.66-1.3c-.19-1.36.46-1.93.9-1.95"/><path class="cls-3" d="M12.65,10.32a7.49,7.49,0,0,0,7.67,2.1l.49.53"/><path class="cls-3" d="M16.1,5.19h.42c8.09.23,6.72,9,6.72,9"/><path class="cls-3" d="M12.41,13.12a3.81,3.81,0,0,1-1.48,1.72s-.72-.91-1.6-.68c0,0-.85-6.4,3.74-8.39"/><line class="cls-3" x1="53.74" y1="28.89" x2="54.96" y2="28.89"/><line class="cls-3" x1="34.03" y1="28.89" x2="49.99" y2="28.89"/><line class="cls-3" x1="44.39" y1="33.98" x2="54.96" y2="33.98"/><line class="cls-3" x1="34.03" y1="33.98" x2="39.41" y2="33.98"/><path class="cls-3" d="M61.22,32.71v4.11a3.67,3.67,0,0,1-3.67,3.68H4.18A3.68,3.68,0,0,1,.5,36.82V12.3"/><path class="cls-3" d="M.5,8V4.18A3.68,3.68,0,0,1,4.18.5H57.55a3.67,3.67,0,0,1,3.67,3.68V28.57"/><path class="cls-3" d="M41.12,7.88H53A1.92,1.92,0,0,1,55,9.8V19.88A1.92,1.92,0,0,1,53,21.8H34.77a1.92,1.92,0,0,1-1.92-1.92V9.8a1.92,1.92,0,0,1,1.92-1.92h3"/></g></g></svg>